<?xml version="1.0" encoding="UTF-8"?>
<svg id="Laag_1" xmlns="http://www.w3.org/2000/svg" xmlns:xlink="http://www.w3.org/1999/xlink" version="1.1" viewBox="0 0 47.37 43.44">
  <!-- Generator: Adobe Illustrator 30.0.0, SVG Export Plug-In . SVG Version: 2.1.1 Build 123)  -->
  <defs>
    <style>
      .st0 {
        fill: #bc97c8;
      }

      .st1 {
        fill: #400e81;
      }

      .st2 {
        fill: #1e0f82;
      }

      .st3 {
        fill: #5fbe9f;
      }

      .st4 {
        fill: url(#Naamloos_verloop_15);
      }

      .st5 {
        fill: url(#Naamloos_verloop_14);
      }

      .st6 {
        fill: url(#Naamloos_verloop_17);
      }

      .st7 {
        fill: url(#Naamloos_verloop_19);
      }

      .st8 {
        fill: url(#Naamloos_verloop_18);
      }

      .st9 {
        fill: url(#Naamloos_verloop_21);
      }

      .st10 {
        fill: url(#Naamloos_verloop_23);
      }

      .st11 {
        fill: url(#Naamloos_verloop_24);
      }

      .st12 {
        fill: url(#Naamloos_verloop_22);
      }

      .st13 {
        fill: url(#Naamloos_verloop_20);
      }

      .st14 {
        fill: url(#Naamloos_verloop_12);
      }

      .st15 {
        fill: url(#Naamloos_verloop_16);
      }

      .st16 {
        fill: url(#Naamloos_verloop_11);
      }

      .st17 {
        fill: url(#Naamloos_verloop_10);
      }

      .st18 {
        fill: url(#Naamloos_verloop_13);
      }

      .st19 {
        fill: url(#Naamloos_verloop_25);
      }

      .st20 {
        fill: url(#Naamloos_verloop_26);
      }

      .st21 {
        fill: #5b5eaa;
      }

      .st22 {
        fill: #4e69af;
      }

      .st23 {
        fill: #7b258e;
      }

      .st24 {
        fill: #33a97d;
      }

      .st25 {
        fill: #18a8c8;
      }

      .st26 {
        fill: #15278d;
      }

      .st27 {
        fill: #c0e7e7;
      }

      .st28 {
        fill: #2581b9;
      }

      .st29 {
        fill: #2f2b90;
      }

      .st30 {
        fill: #4c7bb7;
      }

      .st31 {
        fill: #351b89;
      }

      .st32 {
        fill: url(#Naamloos_verloop);
      }

      .st33 {
        fill: #19a2c8;
      }

      .st34 {
        fill: #240d81;
      }

      .st35 {
        fill: #28aece;
      }

      .st36 {
        fill: #3ab2b6;
      }

      .st37 {
        fill: #6e1787;
      }

      .st38 {
        fill: #1ea5ca;
      }

      .st39 {
        fill: #22a8cb;
      }

      .st40 {
        fill: #283796;
      }

      .st41 {
        fill: #5d1486;
      }

      .st42 {
        fill: #19a6ca;
      }

      .st43 {
        fill: #23a7a4;
      }

      .st44 {
        fill: #370d80;
      }

      .st45 {
        fill: #1da7bc;
      }

      .st46 {
        fill: #270e81;
      }

      .st47 {
        fill: #17a5bb;
      }

      .st48 {
        fill: #1c218b;
      }

      .st49 {
        fill: #83cebb;
      }

      .st50 {
        fill: #70c8de;
      }

      .st51 {
        fill: #2a6aae;
      }

      .st52 {
        fill: #5f1586;
      }

      .st53 {
        fill: #dcf0f1;
      }

      .st54 {
        fill: #86469f;
      }

      .st55 {
        fill: #2c8dbf;
      }

      .st56 {
        fill: #24a594;
      }

      .st57 {
        fill: #505aa8;
      }

      .st58 {
        fill: url(#Naamloos_verloop_2);
      }

      .st59 {
        fill: url(#Naamloos_verloop_5);
      }

      .st60 {
        fill: url(#Naamloos_verloop_6);
      }

      .st61 {
        fill: url(#Naamloos_verloop_4);
      }

      .st62 {
        fill: url(#Naamloos_verloop_9);
      }

      .st63 {
        fill: url(#Naamloos_verloop_8);
      }

      .st64 {
        fill: url(#Naamloos_verloop_3);
      }

      .st65 {
        fill: url(#Naamloos_verloop_7);
      }

      .st66 {
        fill: #632a91;
      }

      .st67 {
        fill: #112a8f;
      }

      .st68 {
        fill: #208abd;
      }

      .st69 {
        fill: #2a59a6;
      }
    </style>
    <linearGradient id="Naamloos_verloop" data-name="Naamloos verloop" x1="1079.67" y1="-1716.1" x2="1090.26" y2="-1719.99" gradientTransform="translate(-1118.66 -1812.66) scale(1.07 -1.07)" gradientUnits="userSpaceOnUse">
      <stop offset="0" stop-color="#1d77b4"/>
      <stop offset=".17" stop-color="#236caf"/>
      <stop offset=".62" stop-color="#2480b9"/>
      <stop offset="1" stop-color="#18a8cb"/>
    </linearGradient>
    <linearGradient id="Naamloos_verloop_2" data-name="Naamloos verloop 2" x1="1062.76" y1="-1725.25" x2="1067.73" y2="-1738.75" gradientTransform="translate(-1118.66 -1812.66) scale(1.07 -1.07)" gradientUnits="userSpaceOnUse">
      <stop offset="0" stop-color="#1a5ea8"/>
      <stop offset=".13" stop-color="#4256a5"/>
      <stop offset=".31" stop-color="#5c5da9"/>
      <stop offset=".76" stop-color="#3bb5d2"/>
      <stop offset="1" stop-color="#3db6d3"/>
    </linearGradient>
    <linearGradient id="Naamloos_verloop_3" data-name="Naamloos verloop 3" x1="1075.01" y1="-1699.9" x2="1070.01" y2="-1700.9" gradientTransform="translate(-1118.66 -1812.66) scale(1.07 -1.07)" gradientUnits="userSpaceOnUse">
      <stop offset="0" stop-color="#852990"/>
      <stop offset="1" stop-color="#ac439e"/>
    </linearGradient>
    <linearGradient id="Naamloos_verloop_4" data-name="Naamloos verloop 4" x1="1057.99" y1="-1724.4" x2="1052.89" y2="-1729.33" gradientTransform="translate(-1118.66 -1812.66) scale(1.07 -1.07)" gradientUnits="userSpaceOnUse">
      <stop offset="0" stop-color="#260b80"/>
      <stop offset=".14" stop-color="#231b88"/>
      <stop offset=".29" stop-color="#2059a6"/>
      <stop offset="1" stop-color="#24accd"/>
    </linearGradient>
    <linearGradient id="Naamloos_verloop_5" data-name="Naamloos verloop 5" x1="1052.99" y1="-1709.27" x2="1046.71" y2="-1716.49" gradientTransform="translate(-1118.66 -1812.66) scale(1.07 -1.07)" gradientUnits="userSpaceOnUse">
      <stop offset="0" stop-color="#ae6bb2"/>
      <stop offset=".54" stop-color="#cdcde4"/>
      <stop offset="1" stop-color="#f8fbfb"/>
    </linearGradient>
    <linearGradient id="Naamloos_verloop_6" data-name="Naamloos verloop 6" x1="1078.89" y1="-1725.01" x2="1080.38" y2="-1730.52" gradientTransform="translate(-1118.66 -1812.66) scale(1.07 -1.07)" gradientUnits="userSpaceOnUse">
      <stop offset="0" stop-color="#1f3c98"/>
      <stop offset=".28" stop-color="#232d91"/>
      <stop offset="1" stop-color="#1a4a9e"/>
    </linearGradient>
    <linearGradient id="Naamloos_verloop_7" data-name="Naamloos verloop 7" x1="1050.35" y1="-1716.26" x2="1056.77" y2="-1722.6" gradientTransform="translate(-1118.66 -1812.66) scale(1.07 -1.07)" gradientUnits="userSpaceOnUse">
      <stop offset="0" stop-color="#2a7eb8"/>
      <stop offset=".18" stop-color="#3b60aa"/>
      <stop offset=".65" stop-color="#5d77b6"/>
      <stop offset="1" stop-color="#aeb6d8"/>
    </linearGradient>
    <linearGradient id="Naamloos_verloop_8" data-name="Naamloos verloop 8" x1="1057.06" y1="-1722.74" x2="1054.11" y2="-1728.27" gradientTransform="translate(-1118.66 -1812.66) scale(1.07 -1.07)" gradientUnits="userSpaceOnUse">
      <stop offset="0" stop-color="#242c91"/>
      <stop offset=".4" stop-color="#31238c"/>
      <stop offset="1" stop-color="#23449c"/>
    </linearGradient>
    <linearGradient id="Naamloos_verloop_9" data-name="Naamloos verloop 9" x1="1065.49" y1="-1699.54" x2="1067.45" y2="-1704.47" gradientTransform="translate(-1118.66 -1812.66) scale(1.07 -1.07)" gradientUnits="userSpaceOnUse">
      <stop offset="0" stop-color="#efe0eb"/>
      <stop offset=".42" stop-color="#ead8e6"/>
      <stop offset="1" stop-color="#d09bcb"/>
    </linearGradient>
    <linearGradient id="Naamloos_verloop_10" data-name="Naamloos verloop 10" x1="1080.18" y1="-1727.92" x2="1083.58" y2="-1732.25" gradientTransform="translate(-1118.66 -1812.66) scale(1.07 -1.07)" gradientUnits="userSpaceOnUse">
      <stop offset="0" stop-color="#1a53a2"/>
      <stop offset="1" stop-color="#25adce"/>
    </linearGradient>
    <linearGradient id="Naamloos_verloop_11" data-name="Naamloos verloop 11" x1="1070.68" y1="-1731.03" x2="1071.44" y2="-1737.94" gradientTransform="translate(-1118.66 -1812.66) scale(1.07 -1.07)" gradientUnits="userSpaceOnUse">
      <stop offset="0" stop-color="#257cb6"/>
      <stop offset=".46" stop-color="#21accc"/>
      <stop offset="1" stop-color="#24adcd"/>
    </linearGradient>
    <linearGradient id="Naamloos_verloop_12" data-name="Naamloos verloop 12" x1="1055.66" y1="-1701.8" x2="1063.02" y2="-1701.9" gradientTransform="translate(-1118.66 -1812.66) scale(1.07 -1.07)" gradientUnits="userSpaceOnUse">
      <stop offset="0" stop-color="#e8cce4"/>
      <stop offset=".24" stop-color="#d6add4"/>
      <stop offset=".75" stop-color="#74208b"/>
      <stop offset="1" stop-color="#5d1083"/>
    </linearGradient>
    <linearGradient id="Naamloos_verloop_13" data-name="Naamloos verloop 13" x1="1062.25" y1="-1704.69" x2="1062.65" y2="-1711.08" gradientTransform="translate(-1118.66 -1812.66) scale(1.07 -1.07)" gradientUnits="userSpaceOnUse">
      <stop offset="0" stop-color="#c37bbb"/>
      <stop offset=".72" stop-color="#9a4ea3"/>
      <stop offset="1" stop-color="#825daa"/>
    </linearGradient>
    <linearGradient id="Naamloos_verloop_14" data-name="Naamloos verloop 14" x1="1073.39" y1="-1725.64" x2="1074.75" y2="-1731.75" gradientTransform="translate(-1118.66 -1812.66) scale(1.07 -1.07)" gradientUnits="userSpaceOnUse">
      <stop offset="0" stop-color="#185fa8"/>
      <stop offset=".47" stop-color="#3c51a2"/>
      <stop offset="1" stop-color="#3763ab"/>
    </linearGradient>
    <linearGradient id="Naamloos_verloop_15" data-name="Naamloos verloop 15" x1="1081.12" y1="-1704.87" x2="1082.17" y2="-1711.11" gradientTransform="translate(-1118.66 -1812.66) scale(1.07 -1.07)" gradientUnits="userSpaceOnUse">
      <stop offset="0" stop-color="#a255a7"/>
      <stop offset="1" stop-color="#571083"/>
    </linearGradient>
    <linearGradient id="Naamloos_verloop_16" data-name="Naamloos verloop 16" x1="1083.63" y1="-1701.33" x2="1077.57" y2="-1701.55" gradientTransform="translate(-1118.66 -1812.66) scale(1.07 -1.07)" gradientUnits="userSpaceOnUse">
      <stop offset="0" stop-color="#d7a6d1"/>
      <stop offset=".39" stop-color="#bc84bf"/>
      <stop offset="1" stop-color="#6d1586"/>
    </linearGradient>
    <linearGradient id="Naamloos_verloop_17" data-name="Naamloos verloop 17" x1="1056.82" y1="-1709.22" x2="1062.74" y2="-1710.13" gradientTransform="translate(-1118.66 -1812.66) scale(1.07 -1.07)" gradientUnits="userSpaceOnUse">
      <stop offset="0" stop-color="#ae6ab1"/>
      <stop offset=".63" stop-color="#8d4ea3"/>
      <stop offset="1" stop-color="#7f5fab"/>
    </linearGradient>
    <linearGradient id="Naamloos_verloop_18" data-name="Naamloos verloop 18" x1="1054.87" y1="-1704.8" x2="1057.1" y2="-1709.15" gradientTransform="translate(-1118.66 -1812.66) scale(1.07 -1.07)" gradientUnits="userSpaceOnUse">
      <stop offset="0" stop-color="#c6a5d0"/>
      <stop offset="1" stop-color="#782b91"/>
    </linearGradient>
    <linearGradient id="Naamloos_verloop_19" data-name="Naamloos verloop 19" x1="1084.26" y1="-1711.5" x2="1074.77" y2="-1715.75" gradientTransform="translate(-1118.66 -1812.66) scale(1.07 -1.07)" gradientUnits="userSpaceOnUse">
      <stop offset="0" stop-color="#361787"/>
      <stop offset=".46" stop-color="#3a1385"/>
      <stop offset="1" stop-color="#1b4fa1"/>
    </linearGradient>
    <linearGradient id="Naamloos_verloop_20" data-name="Naamloos verloop 20" x1="1068.22" y1="-1724.72" x2="1067.94" y2="-1735.04" gradientTransform="translate(-1118.66 -1812.66) scale(1.07 -1.07)" gradientUnits="userSpaceOnUse">
      <stop offset="0" stop-color="#185ea8"/>
      <stop offset=".05" stop-color="#175ea8"/>
      <stop offset=".09" stop-color="#184a9e"/>
      <stop offset=".59" stop-color="#2f218b"/>
      <stop offset="1" stop-color="#2a56a5"/>
    </linearGradient>
    <linearGradient id="Naamloos_verloop_21" data-name="Naamloos verloop 21" x1="1066.98" y1="-1703.21" x2="1072.42" y2="-1710.99" gradientTransform="translate(-1118.66 -1812.66) scale(1.07 -1.07)" gradientUnits="userSpaceOnUse">
      <stop offset="0" stop-color="#741083"/>
      <stop offset=".52" stop-color="#5e1e8a"/>
      <stop offset="1" stop-color="#4d1083"/>
    </linearGradient>
    <linearGradient id="Naamloos_verloop_22" data-name="Naamloos verloop 22" x1="1072.02" y1="-1708" x2="1073.33" y2="-1717.69" gradientTransform="translate(-1118.66 -1812.66) scale(1.07 -1.07)" gradientUnits="userSpaceOnUse">
      <stop offset="0" stop-color="#4384bc"/>
      <stop offset=".32" stop-color="#1f4da0"/>
      <stop offset="1" stop-color="#1d70b1"/>
    </linearGradient>
    <linearGradient id="Naamloos_verloop_23" data-name="Naamloos verloop 23" x1="1052.47" y1="-1714.25" x2="1062.18" y2="-1714.66" gradientTransform="translate(-1118.66 -1812.66) scale(1.07 -1.07)" gradientUnits="userSpaceOnUse">
      <stop offset="0" stop-color="#4c1083"/>
      <stop offset=".57" stop-color="#441183"/>
      <stop offset="1" stop-color="#1f5ba6"/>
    </linearGradient>
    <linearGradient id="Naamloos_verloop_24" data-name="Naamloos verloop 24" x1="1068.69" y1="-1721.59" x2="1069.84" y2="-1727.47" gradientTransform="translate(-1118.66 -1812.66) scale(1.07 -1.07)" gradientUnits="userSpaceOnUse">
      <stop offset="0" stop-color="#23a9b4"/>
      <stop offset=".25" stop-color="#23a7a7"/>
      <stop offset=".62" stop-color="#21abcc"/>
      <stop offset="1" stop-color="#26adcd"/>
    </linearGradient>
    <linearGradient id="Naamloos_verloop_25" data-name="Naamloos verloop 25" x1="1060.79" y1="-1717.6" x2="1065.5" y2="-1721.3" gradientTransform="translate(-1118.66 -1812.66) scale(1.07 -1.07)" gradientUnits="userSpaceOnUse">
      <stop offset="0" stop-color="#d0ede5"/>
      <stop offset=".56" stop-color="#ace0dd"/>
      <stop offset="1" stop-color="#47b7ba"/>
    </linearGradient>
    <linearGradient id="Naamloos_verloop_26" data-name="Naamloos verloop 26" x1="1068.47" y1="-1711.72" x2="1064.32" y2="-1720.42" gradientTransform="translate(-1118.66 -1812.66) scale(1.07 -1.07)" gradientUnits="userSpaceOnUse">
      <stop offset="0" stop-color="#2baeca"/>
      <stop offset=".14" stop-color="#19a6bb"/>
      <stop offset=".4" stop-color="#2faa97"/>
      <stop offset=".71" stop-color="#50b9a9"/>
      <stop offset="1" stop-color="#8dd3d3"/>
    </linearGradient>
  </defs>
  <path class="st32" d="M46.6,20.88c.06.07.19.22.22.29.05.15.04.29,0,.44-.25.8-1.24,1.06-1.66,1.62-.1.13-.02.22-.03.22-.04.02-.14-.06-.22-.03-.16.06-.38.29-.51.4l-.22.15c-1.51,1.24-3.13,2.6-4.7,3.65-.36.24-.69.49-1.11.61-.38.27-.83.39-1.37.35l-2.03-.05-.21-.15-.37-.07c-.04.2-.13.18-.22,0l-.07.14-2.95-.49-.06-.16-.06-.17.69-1.27.18-.03.12-.08c1.6.1,3.19.08,4.76-.06,1.78-1.19,3.5-2.59,5.14-4.01.21-.25.42-.46.63-.63.02-.06.05-.06.07,0,.1-.05.14-.03.07.07,1.01.07,2.01.07,3.01,0-.2-.02-.19-.09,0-.15.04-.1.13-.17.28-.21.18-.43.39-.55.6-.38h.02Z"/>
  <path class="st58" d="M18.96,29.77c-.27,1.49-.51,3.3-.17,4.86,1.39,1.76,2.92,3.44,4.58,5.05.21.18.29.35.23.53h.17c.29.1.12,2.79.05,3.23h-.22l-.22-.07c-.18-.07-.29-.12-.44-.26-.92-.86-1.89-2.16-2.76-3.13-.75-.84-3.25-3.31-3.49-4.26l-.19-.16c-.14-.7-.16-1.42-.17-2.13.09-.13.14-.29.14-.5l-.13-.23c-.02-.48,0-1.32.27-1.68-.09-.27-.09-.34-.02-.63l.41-1.52.19-.2h.24l1.44.88s.09.22.09.22Z"/>
  <path class="st64" d="M23.74,0C23.82,0,23.89,0,23.96.03c.44.16,1.7,1.75,2.09,2.17.51.54,1.05,1.06,1.55,1.62.75.85,2.85,3.07,3.05,4.04l.17.11c.1.67.08,1.36.06,2.03l-.15.13c.03.05.07.11.09.17.21.54-.67,3.7-1.11,4.07-.05.04-.1.07-.16.1-.56-.11-1.06-.42-1.4-.88l-.11-.26c.35-1.44.53-2.92.55-4.41-1.52-1.87-3.12-3.61-4.81-5.24l-.04-.15c-.18-1.11-.15-2.37,0-3.53Z"/>
  <path class="st41" d="M32.41,7.5c.4,0,.14.36-.07.54,0,.46.16.92.43,1.29l3.13-.58c.35-.09.63-.07.84.07l.17.13c0,.92-.08,1.85-.28,2.78-.06.83,0,.96.69,1.4.27.42.56.82.88,1.2-.05.28-.3.81,0,.96-.16.18-.34.14-.44-.07-.51.17-1.27.14-1.76-.07-.07-.18.09-.26.47-.23l.74.03c.09-.01-1.01-1.37-1.1-1.42l-4.77,1.08c-.16-.05-.26-.1-.2-.28.49-.92.83-1.89,1.03-2.89l.16-.08c-.06-.02-.14-.04-.15-.08-.04-.39-.03-1.15,0-1.54l.15-.1-.04.15c-.47.17-.95.32-1.43.47l-.15-.11c.03-.66.05-1.65-.07-2.28l1.03-.22c.08.04.24.07.15,0,.04-.1.14-.07.22-.07.08.04.24.07.15,0,.04-.1.15-.06.22-.07h0Z"/>
  <path class="st61" d="M8.96,30.29l.16.05c.28.43.75.7,1.42.82.21.07.33.19.36.37l-.31,3.15c.08.2,3.92-.77,4.16-.93l.16.07.06-.17,1.21-.37c.04-.22.13-.33.27-.34.02.86,0,1.96.22,2.79-.13-.1-.21-.06-.34-.02-2.37.76-5.01.99-7.47,1.4-.66-.14-.75-.59-.72-1.2l.73-5.08c0-.07-.18.02-.14-.1.23.03.07-.09.1-.17.03-.1.09-.16.12-.27h0Z"/>
  <path class="st59" d="M9.25,15.29c.22-.06.36.12.48.29l.54.98c.19.19.29.38.31.56-.18.24-.38.46-.61.65-1.68,1.23-3.44,2.54-4.99,3.8-.02.02-.05.01-.09,0-.04,0-.08-.03-.12-.05l-.05.08c-1.34.03-2.67.05-4,.06-.05.11-.12.09-.22-.07-.18-.55.35-.77.7-1.03.14-.1.2-.15.33-.24,2.08-1.49,4.57-3.4,6.76-4.64.33-.19.58-.3.95-.41v.02Z"/>
  <path class="st60" d="M38.29,29.4l.07.22c.08.37,0,.67.3.92-.31.08-.05.17-.02.3.02.09-.07.25-.05.39v.17c-.59.17-1.18.37-1.76.59l.12,1.71c.28.18.22,1.19.02,1.32s-3.95-.83-4.51-.97l-.05-.16c-.06-.02-.06-.04,0-.07l-.13-.22c-.06-1.3-.27-2.6-.64-3.88-.06-.22-.02-.31.18-.39.09-.04,1.58.29,1.78.36l.06.17.17-.06c.79.15,1.59.28,2.4.4.4-.66,1.06-1.05,1.99-1.14.02.12.05.24.07.37v-.03Z"/>
  <path class="st65" d="M.73,21.69c1.35-.04,2.7-.04,4.04,0,.12.05.25.1.36.17s.23.13.33.21c1.36,1.1,2.72,2.21,4.02,3.3.36.21.62.45.8.73.05.03.11.1.09.13-.15.23-1.28,1.81-1.39,1.87l-.17-.02c-.28-.23-.89-.44-1.16-.61-.06-.04-.08-.22-.26-.29-.14-.06-.26.03-.27.02-.01-.01,0-.17-.11-.3-.2-.22-.92-.63-1.21-.85-1.66-1.27-3.3-2.58-4.93-3.89-.14-.18-.29-.33-.36-.55.07.04.14.07.22.07h0Z"/>
  <path class="st63" d="M9.33,28.74c.47.4.97.75,1.5,1.06l.12.19c.17.2.37.18.65.15.94-.12,1.87-.34,2.78-.63l.17.11c-.06-.23.99-.33,1.07-.3.43.14.13,1.11-.19,1.33l.09.18c-.39.84-.47,1.79-.47,2.72l-.14.26c-.49.31-1.46.48-2.13.63-.31.07-2.25.5-2.35.4l.33-3.39c-.55-.45-1.64-.31-1.8-1.17.1-.41.12-.84.22-1.25.02-.23.19-.66.15-.29Z"/>
  <path class="st52" d="M14.99,9.63l.16.33c.06,1.49.44,2.96,1.08,4.31.09.2,0,.26-.16.34l-4.87-1.07c-.26.46-.63.92-1.11,1.4.51-.04,1.03-.04,1.54.02l.05.18-.16.14h-1.52l-.16-.14-.22.07c-.06.21-.21.16-.29,0-.05-.12-.05-.25-.07-.37-.08-.59-.03-.81.54-1.07l1.08-.5v-.59c-.09-.38-.12-.77-.08-1.15-.29-.68-.35-1.59-.39-2.35,0-.15.04-.3.09-.45.04-.15.17-.19.38-.14.71.1,3.56.57,3.95.88.05.04.1.09.15.15h.01Z"/>
  <path class="st62" d="M23.74,0c.2.1.1.08.1.2-.01.63-.08,1.28-.09,1.9,0,.35.2,1.12,0,1.43l.06.09c-1.36,1.44-2.8,2.95-4.32,4.51l-.51.4s-.11.1-.14.08c-.29-.18-1.06-.73-1.28-.96-.15-.15-.46-.47-.34-.66.42-.62,1.01-1.27,1.51-1.84.76-.88,2.14-2.12,2.72-3.02.1-.15.03-.27.05-.28.04-.03.18-.02.29-.11.55-.47,1.22-1.76,1.98-1.73h-.03Z"/>
  <path class="st17" d="M38.59,31.24v.07l.07.22c.04,1.44.59,3.2.59,4.59,0,.57-.39,1.04-.99.99-2.25-.39-4.5-.8-6.74-1.24-.06-.02-.06-.05,0-.07.35-.43.54-.93.74-1.47-.22-.07-.07-.45.15-.44l4.56,1.03c-.07-.34.16-.96-.14-1.15l-.14-1.81c.08-.26,1.6-.52,1.9-.71h0Z"/>
  <path class="st16" d="M30.28,36.46c-.79,1.13-1.66,1.9-2.55,2.89-.98,1.1-1.9,2.3-2.93,3.36-.29.29-.56.68-.99.73-.2-.1-.1-.08-.1-.2.01-.81.12-1.93.03-2.71-.02-.17-.07-.2-.15-.33v-.16c1.49-1.48,2.99-3.05,4.49-4.72l.51-.41.14-.1c.47.54,1,1.02,1.58,1.46l-.03.18h0Z"/>
  <path class="st14" d="M16.75,7.79l.11.18c-.05.67-.06,1.34-.03,2.01l-.16.16-.16-.06c-.34.1-1.09-.08-1.48-.29l-.05-.17c-1.28-.39-2.68-.59-4.03-.86-.15-.03-.31-.02-.46-.02-.04.06-.09.08-.15.07-.55-.59-1.15-1.09-1.8-1.48-.04.15-.12.2-.25.16v-.07c-.07-.14-.04-.29,0-.44.13-.44.29-.54.77-.52,2.3.1,5.05.98,7.36,1.33,0,0,.33,0,.33,0Z"/>
  <path class="st18" d="M18.96,8.53c-.05.86-.06,1.77,0,2.67.05.65.11,1.3.29,1.92.13.2.16.36.08.48-.34.48-1.04.87-1.62.96-.06-.06-.12-.12-.16-.19s-.09-.13-.11-.21c-.35-1.17-.63-2.33-.83-3.54-.01-.07,0-.15.01-.23s.04-.16.06-.24c.05-.75-.11-1.62.07-2.35.09-.35.25-.53.44-.81l.44.55,1.32.99h.01Z"/>
  <path class="st5" d="M30.28,29.48l.2.16c.17.42.39,1.31.17,1.68l.07.22c.29.41.38,1.32.15,1.76l.15.2c.02.66-.03,1.31-.15,1.96.26-.04.4.02.44.19.21-.09.28-.04.22.15v.07c-.25-.05-.5-.14-.76-.14-.07.02-.4.6-.49.73-.25-.31-.67-.49-.96-.77s-.4-.65-.73-.77l-.09-.14c.34-1.37.25-2.97.04-4.36-.12-.54.45-.93.9-1.08.3-.1.7-.22.85.14h-.01Z"/>
  <path class="st4" d="M39.1,6.98c.05.13.09.14.08.33-.05,1.54-.53,3.11-.46,4.64,0,.03-.12.02-.13.09-.16.7-.24,1.56-.37,2.3-.14.12-.21-.02-.3-.11-.28-.3-.49-.8-.77-1.07-.22-.21-.54-.24-.61-.56-.26-1.16.47-2.61.2-3.77.28-.38,1.76-2.02,2.16-1.98.09,0,.14.08.19.14h0Z"/>
  <path class="st66" d="M38.22,15.29c.37.07.23.05.46.17.27.14.7.32.93.46.32.2,1.05.89,1.35,1.01.11.04.25-.04.27-.02,0,0-.07.1,0,.18.21.23,1.08.77,1.4,1,.22.26.05.42-.5.48-.53.48-1.17.85-1.88.98-.23-.16-.46-.28-.7-.37-.54-.14-1.14-.63-1.58-1.01-.09-.08-.14-.2-.19-.31-.21-.18-.47-.41-.79-.68.38-.48.64-.99.78-1.52-.12-.21-.12-.36,0-.45.15.02.3.05.44.07h0Z"/>
  <path class="st15" d="M39.1,6.98c-.18-.02-.29.02-.44.11-.29.18-1.12,1.03-1.4,1.32-.22.23-.13.35-.51.41-.31.04-.65.04-.97.09-1.01.18-2,.44-3.02.56-.3-.08-.64-1.21-.55-1.48.05-.17.4-.25.21-.49,1.94-.39,3.9-.65,5.85-1.03.42-.09.7.14.84.51h0Z"/>
  <path class="st6" d="M11.68,15.14c.06-.03.12-.07.18-.09s.12-.04.18-.04c1.26.11,2.51.38,3.75.65.06.01.11.05.16.08.05.03.1.08.15.13.11.05.09.15-.07.29l.05.16-.61,1.05-.18.03-.13.13-1.3-.19-.08-.16c0,.06-.02.14-.07.15-.09.02-1.07.02-1.15,0l-.11-.15s-.06.09-.12.11c-.08.02-1.52-.04-1.6-.08-.05-.03-.1-.06-.15-.1-.68-.52-.66-1.35-1.32-1.84.02,0,.05-.07.07-.07.08-.02.2.01.29,0l.22-.07c.54-.04,1.29-.03,1.84,0h0Z"/>
  <path class="st57" d="M14.4,26.39l.21.09c.14.16.48,1.28.38,1.52-.03.22-.38.34-.51.15-.04.04-.08.09-.13.12s-.09.06-.14.07c-.87.14-4.23.49-4.82.08-.05-.03-.09-.08-.13-.12-.07-.01-.41-.07-.43-.08-.03-.03,0-.13-.01-.14l1.47-1.98c.2-.05.43-.02.69.09,1.09.08,2.18.11,3.28.11l.14.1h0Z"/>
  <path class="st8" d="M8.3,7.5c.08-.07.08-.25.19-.29.41-.15,1.63,1.3,2.01,1.54.13.93.18,1.87.29,2.79v.55c-.16.31-1.32.3-1.66.27,0,.26-.08.4-.25.43-.01-.09.02-.21,0-.29,0-.21-.03-.26-.07-.15-.02-.09-.08-.17,0-.33-.23.07-.21-.09,0-.15-.18-1.43-.48-2.93-.52-4.37h0Z"/>
  <path class="st46" d="M14.47,28.15l.11.14c-.03.4,0,.8.1,1.2l-.14.13c-.37.08-.84.26-1.23.35-.48.1-1.85.43-2.25.3-.16-.05-.1-.18-.12-.28l-.14-.2c-.52-.31-1.01-.66-1.47-1.05,0,0,.01-.09-.07-.07.06.16-.05.27-.07.37l.07-.74c1.65.3,3.57.12,5.22-.15h0Z"/>
  <path class="st21" d="M42.63,18.08c.6.42,1.2.85,1.76,1.25.11.14.13.18.05.34-.23.48-1.5,1.16-2.02,1.36,0,.09-.02.16-.09.21-.08,0-.15-.01-.23-.03-.34-.09-2.26-1.52-2.46-1.83-.04-.06-.07-.13-.1-.2.21-.14.47.2.71.22.16.02.97-.35,1.15-.45.25-.14.46-.42.66-.52.16-.08.4-.07.52-.13.1-.05-.07-.19.04-.22h0Z"/>
  <path class="st2" d="M38.37,28.23c-.31.19-.21.46-.15.81-.09.32-.41.21-.73.33-.38.14-1.22.51-1.1.99-.92-.09-1.82-.32-2.72-.51-.05-.02-.13-.07-.12-.11.04-.18.44-1.37.53-1.42.03-.02.07-.02.11-.02h.22l.37.07c1.21.02,2.41.2,3.6-.15h0Z"/>
  <path class="st30" d="M46.6,20.88c-.33-.06-.33.43-.59.55-.11.05-.19.03-.29.04l-.1.08c-1-.01-2-.01-2.98,0-.02.01-.07-.01-.07,0-.22.04-.34-.09-.22-.29-.04-.07-.12-.22-.07-.29.05-.07.98-.43,1.17-.56.09-.06.85-.74.89-.8.08-.1,0-.2.07-.26.66.46,1.69.96,2.21,1.54h-.02Z"/>
  <path class="st37" d="M9.25,14.85c-.13-.58-.37-1.49-.37-2.06,0-.09.16-.4.07-.59.39.04,1.56.09,1.77-.25.08-.14.08-.26.07-.41.05.39.19.81.22,1.21.01.19.01.39,0,.58-.07.19-1.66.6-1.73,1.12-.02.11.14.31-.02.39h0Z"/>
  <path class="st0" d="M8.3,7.42c-.18-.13-.04-.32,0-.44v.44Z"/>
  <path class="st30" d="M46.82,21.61v-.44c.13.27.07.21,0,.44Z"/>
  <path class="st28" d="M44.39,23.82c-.09.07-.19.12-.22.15l.22-.15Z"/>
  <path class="st23" d="M31.82,7.65h.15v.07c-.1,0-.25.04-.29-.07h.15,0Z"/>
  <path class="st23" d="M32.19,7.57h.15v.07c-.1,0-.25.04-.29-.07h.15-.01Z"/>
  <path class="st37" d="M8.89,12.5s-.06-.06-.07-.15l.07-.07s0,.22,0,.22Z"/>
  <path class="st2" d="M38.37,29.62l-.07-.22s.05.12.07.22Z"/>
  <path class="st40" d="M38.66,31.54l-.07-.22s.13.11.07.22Z"/>
  <path class="st35" d="M23.59,43.44c-.14,0-.14-.04-.22-.07l.22.07Z"/>
  <path class="st7" d="M37.78,17.86c.59.41,1.18.89,1.76,1.32.93.68,1.82,1.43,2.79,2.06.05.11.17.18.22.29-.02.04,0,.16-.07.26-.85,1-2.9,2.47-4.01,3.34-.45.35-1.4,1.21-1.91,1.25-1.25.12-2.97.01-4.27,0-.12,0-.33.05-.4-.07l.02-.26c.54-1.44,1.15-2.84,1.85-4.2l.19-.17v-.21c-.23-.05-.37-.38-.29-.6-.71-1.06-1.27-2.3-1.62-3.53.27-.22.97-.3,1.25-.07l.51-.07c.35-.17.75-.24,1.22-.2,1.22-.15,1.98.01,2.75.86h0Z"/>
  <path class="st25" d="M31.24,22.42c0-.08.03-.14.08-.2.09-.1,2.34-.88,2.47-.87.2.01.23.17.17.34-.75,1.51-1.32,3.12-2.06,4.63-.2.42-.55,1.11-.81,1.47.11.26-.61.95-.84,1.07l-.19-.04c.04.25-.49.43-.66.29h-.17c-.18-.45-.46-.72-.85-.81l-.09-.15c.03-.25.2-.46.52-.65,1.39-.53,1.5-2.23,1.17-3.5l.08-.19-.06-.16c.06-.11.62-.97.67-1.01.06-.04.13-.03.2,0-.12-.19.22-.39.37-.22Z"/>
  <path class="st67" d="M34.18,28.3l-.51,1.54c-.26-.06-1.82-.46-1.91-.37.24,1.38.82,2.92.66,4.34-.02.05-.07.13-.11.12-.16-.03-1.26-.39-1.38-.46l-.05-.17c-.01-.63-.08-1.15-.15-1.76l-.07-.22c-.03-.61-.2-1.25-.37-1.84-.23-.15-.39-.41-.22-.66.27-.17.84-.76,1.03-1.03l3.09.51h-.01Z"/>
  <path class="st50" d="M45.72,21.46v.15c-1.01.07-2.01.07-3.01,0-.03-.02-.05-.05-.07-.07.07-.05.06-.07.18-.08.91-.1,1.99.08,2.91,0h-.01Z"/>
  <path class="st38" d="M45.72,21.61c.23,0,.37-.05.56-.06.02,0-.02.11.21.14.22.03.21.03,0,.07-1.17-.21-2.44.03-3.61-.07-.12-.01-.11-.04-.18-.08,1,.01,2.01-.01,3.01,0h.01Z"/>
  <path class="st67" d="M34.76,28.37c-.12,0-.31.04-.37-.07.12.01.3-.05.37.07Z"/>
  <path class="st13" d="M30.06,28.82c.07.22.16.44.22.66-.43-.3-1.48.21-1.61.64-.06.2.13.88.14,1.16.03.78.05,1.81,0,2.58-.02.32-.07.79-.22,1.06-1.46,1.59-2.9,3.2-4.37,4.78-.17.18-.38.45-.63.51-.1-.16-.41-.51-.55-.66-1.14-1.24-2.42-2.44-3.53-3.75-.21-.25-.8-.9-.88-1.17-.28-.89-.1-3.68.15-4.64.03-.12-.01-.26.18-.22.15,0,.31.02.45.08,1.16.51,2.41,1.12,3.45,1.83l.08-.07c.77.55,1,.42,1.63-.19l.2.04c1.4-.8,2.85-1.56,4.35-2.3l.28-.05c.17-.1.53-.21.66-.29Z"/>
  <path class="st42" d="M18.74,27.86l.33.11c1.28,1.05,2.48,2.1,3.62,3.32.05.05.07.11.1.18s.05.14.07.21c-1.29-.65-2.64-1.2-3.9-1.91-.56-.32-1.25-.73-1.76-1.1-.22.11-.43-.06-.37-.29,0-.04,0-.07.02-.1.03-.06,1.04-.83,1.11-.84.09-.02.15-.03.25,0,.16.17.34.32.54.43h-.01Z"/>
  <path class="st26" d="M16.31,27.79c.18-.11.26-.04.15.15.21-.05.43.24.37.44.11.1.24.2.37.29-.15.79-.46,1.56-.59,2.35-.34-.1-.69-.17-1.06-.21l-.12-.16c.12-.38.24-.78.29-1.18-.05-.05-1.02.11-1.18.15-.03-.5-.23-.98-.07-1.47.15-.02.36-.12.51-.15.24-.28.99-.36,1.32-.22h0Z"/>
  <path class="st34" d="M15.43,30.65c.35.02.64.11.99.15.22.02.19-.05.18.22-.1.64-.08,1.29-.15,1.91,0,.08-.13.28-.08.43l-1.46.45c-.02-.73.03-1.49.18-2.21.07-.33.24-.65.33-.95h0Z"/>
  <path class="st9" d="M28.15,13.6l-.37-.05c-1.34-.8-2.67-1.58-3.98-2.36l-.06-.16c-.13.15-.26.3-.43.4-1.21.75-2.44,1.5-3.67,2.22-.13.07-.23.11-.31-.04-.1-.18-.19-.32-.25-.53-.27-.95-.39-3.24-.27-4.22.02-.14.06-.23.15-.33,1.18-1.25,2.35-2.52,3.53-3.79.3-.33,1.05-.92,1.25-1.21.14,0,.2.1.3.18.75.69,1.69,1.7,2.39,2.46.79.87,1.51,1.83,2.3,2.7-.09.82-.04,1.66-.13,2.48-.08.76-.33,1.49-.44,2.24h0Z"/>
  <path class="st12" d="M28.15,13.6c.47.29.94.58,1.4.88l.17-.07c.3.16,1.87,1.15,1.79,1.43-.01.04-.03.07-.05.11.37.26.62.95.59,1.4.58,1.16,1.11,2.34,1.62,3.53.14.26.02.36-.23.22-1.1-.85-2.17-1.75-3.21-2.66-.26-.23-.7-.77-.53-1.09l-.2-.07c-.16-.31-.33-.62-.56-.89l-5.11-3.37-.08-.23c-.06-.02-.14-.04-.15-.09-.02-.13-.02-1.44,0-1.52l.14-.16c.33,0,2.17,1.28,2.61,1.54.59.35,1.22.67,1.8,1.03h0Z"/>
  <path class="st44" d="M30.72,10.14l1.62-.51v1.73c0,.19-.26,1.11-.33,1.36-.19.61-.48,1.2-.77,1.77l4.89-1.1c.06,0,.11.03.16.07.07.05,1.01,1.26,1.06,1.36.05.09.1.14.07.26-.08.07-1.21-.11-1.4.07l-.38.16c-1.28.07-2.54.32-3.77.67l-.41-.03c-.2-.45-1.46-1.18-1.91-1.47.66-1.38,1.1-2.8,1.18-4.34h0Z"/>
  <path class="st54" d="M36.01,15.14c.61-.02,1.16,0,1.76.07,0,.14.12.3.13.42.07.61-.81,1.43-.79,1.59.02.13.41.34.53.43.04.02.28.17.12.21-.21-.15-.88-.62-1.07-.66-.96-.17-1.94-.01-2.9,0l-.51.07c-.42.01-.83.09-1.25.07-.23-.47-.39-.95-.59-1.4,1.47-.46,3.01-.76,4.56-.81h.01Z"/>
  <path class="st10" d="M15.28,17.42v.23c-.5,1.28-1.08,2.53-1.73,3.74l-.19.15c.25.25.44.53.57.86.6,1.2,1.19,2.5,1.57,3.77.19.5-.88.5-1.1.22-.92.02-2,.06-2.9,0-.46-.03-.81-.07-1.21-.29-.75-.41-1.54-1.19-2.21-1.72-1.1-.87-2.2-1.8-3.3-2.69-.2-.03-.18-.06,0-.15.19-.09.34-.34.52-.47,1.76-1.32,3.55-2.59,5.29-3.94.55.02,1.11-.02,1.66,0,.1,0,.19.08.22.08h1.32l1.51.22h-.02Z"/>
  <path class="st22" d="M4.77,21.69c-1.32-.07-2.73.09-4.04,0,.08-.12.28-.07.4-.07.66,0,3.24.12,3.64-.07v.15h0Z"/>
  <path class="st48" d="M32.41,33.81v.07s-.12.29-.15.44l-.3.79c-.14.42-.36.6-.65.53-.22-.05-.45-.07-.66,0,.24-.76.24-1.56.22-2.35l1.54.51h0Z"/>
  <path class="st29" d="M10.94,29.99l-.85-.51-.77-.74c.52.25.97.71,1.51.95.13.08.08.2.11.3Z"/>
  <path class="st1" d="M14.99,9.63c.27.08,1.17.41,1.35.37.22-.05-.02-.74.27-.67-.06.29.04.56.07.81.21,1.53.56,2.94,1.03,4.41.09.27-.36.41-.59.44v.18c-.33.18-.62.42-.86.7h-.17c-1.47-.28-2.91-.66-4.41-.73-.23-.19-1.68,0-1.76-.07,0-.33.39-.53.59-.77.24-.29.44-.6.64-.92l5.02,1.1c-.75-1.52-1.16-3.14-1.18-4.85Z"/>
  <path class="st37" d="M9.84,15.14s-.12.06-.22.07l.22-.07Z"/>
  <path class="st40" d="M31.53,35.8s-.16-.13-.22-.15c.52-.19.62-.93.96-1.32-.05.24-.06.45-.14.7s-.3.82-.59.77h-.01Z"/>
  <path class="st53" d="M23.74,11.03v1.76c.23.85.27,1.86.07,2.72.26.17.18.84.05,1.08l-3.29,2.76c-.51.22-.9-.05-1.3-.33-.2-.14-.68-.49-.61-.71-.07.02-.09,0-.07-.07-.14-.23.12-.7.27-.93.13-.2.44-.63.68-.54.04-.06.03-.13,0-.2l1.98-1.66c.3-.21,1.8-1.56.63-1.34l-2.46.83c-.73.07-1.3.16-1.87.64-.21.11-.68.29-.7-.04.18-.12.42-.33.59-.44.52-.32,1.09-.63,1.62-.96.04-.03.16-.03.24-.08,1.38-.84,2.75-1.73,4.17-2.49Z"/>
  <path class="st69" d="M30.72,31.54c-.1-.04-.07-.14-.07-.22.1.03.06.14.07.22Z"/>
  <path class="st49" d="M17.56,16.1c-.03.07-.04.14-.01.19l.81,1.21c.34.44.18.72-.21,1.03l-.18.24c-1.31,1-2.65,1.95-4.02,2.84-.12.18-.47.09-.59-.07.69-1.33,1.23-2.79,1.91-4.12.14-.27.56-1.07.74-1.25,0-.52,1.5-.44,1.57-.25.02.06,0,.12-.03.17h.01Z"/>
  <path class="st27" d="M19.55,16.76c-.58-.08-1.43-.23-1.98-.66-.02,0-.07-.09-.14-.11-.39-.1-1.1-.11-1.4.18.03-.09.03-.22.07-.29.2-.38.69-.65,1.03-.88.53.18.96-.39,1.4-.55.4-.14.78-.08,1.19-.21.68-.21,1.22-.48,1.97-.67.32-.08,1.15-.54,1.03.29-.07.46-2.65,2.41-3.16,2.91h-.01Z"/>
  <path class="st51" d="M16.31,27.79c-.43.11-.9.14-1.32.22-.23-.53-.33-1.11-.59-1.62.31,0,1.07.14,1.1-.22l.2.08.66,1.34s-.05.2-.05.2Z"/>
  <path class="st68" d="M29.69,17.35c.33.62.16.58.73,1.07.99.84,2.02,1.74,3.05,2.53.14.11.21.13.18-.07.09.21.48.58.29.81,0-.12.09-.28-.15-.19-.76.27-1.88.58-2.57.92h-.16l-.91-2.98-.21.03c-.5.33-.88.36-1.14.08l-.18-.06c-.17-.43-.39-.85-.67-1.22l.04-.19c.15-.19.37-.33.67-.4.35-.24.69-.35,1.02-.34h0Z"/>
  <path class="st31" d="M33.81,17.2c-.1.13-.35.07-.51.07.1-.13.35-.07.51-.07Z"/>
  <path class="st11" d="M30.06,23.82c.36.71.24,1.68.05,2.44-.27,1.05-.54.86-1.25,1.39-.2.15-.38.36-.56.5-.4.53-.88,1.01-1.44,1.44-.65.69-1.34,1.31-2.09,1.87-.27.16-.63.64-.99.67-.39.04-.6-.29-.92-.45-.55-.58-1.1-1.18-1.69-1.73-.78-.73-1.67-1.35-2.43-2.09-.13-.07-.69-.49-.71-.56-.01-.06.02-.12.05-.18l.14-.1c.65.65,1.15.68,1.49.1.22-.15.95-.46.95-.08.17.03.33.09.48.18l2.57,1.82c1.2-.8,2.35-1.64,3.45-2.53l.19.02c.17-.11.28-.24.34-.39l1.21-1.01-.02-.2c.32-.3.64-.6.97-.9-.14-.17.03-.3.22-.22h0Z"/>
  <path class="st33" d="M31.24,22.42s-.35.21-.37.22l-.17-.02c-.26-.44-.76-.52-1.23-.54-.24-.03-.33-.22-.28-.55l-.14-.18c0-.54-.13-1.07-.3-1.58l.08-.22c.13,0,.26.08.39.06.33-.04.88-.5,1.09-.25l.95,3.05h-.02Z"/>
  <path class="st39" d="M29.4,29.11c-1.31.77-2.59,1.44-3.95,2.11-.21.1-.47.12-.68.24,1.11-1.16,2.27-2.3,3.53-3.31.65-.01.81.51,1.1.96Z"/>
  <path class="st45" d="M30.87,22.64c-.21.2-.52.87-.81,1.18l-.22.22c-.19.25-.42.52-.75.51-.24,0-.76-.32-.64-.59l-.07-.18c.32-.67.56-1.4.65-2.14l.16-.11c0,.54.52.38.83.46.38.1.7.28.86.64h-.01Z"/>
  <path class="st47" d="M18.08,27.13c.18.23.45.53.66.74-.25.06-.33-.23-.49-.28-.56-.17-.85.77-1.42.79-.21-.19-.21-.22-.37-.44,0-.05.01-.09.03-.14.08-.22,1.19-.64,1.52-.75.1-.1.14-.06.07.07h0Z"/>
  <path class="st19" d="M13.96,21.61l.08-.05c.83.37,1.69.73,2.57,1.08.11.05.44,1.07.47,1.26l-.11.14.11.03c.29.95.62,1.88.99,2.81l-.07.18c.04.17-.08.16-.19.21-.46.21-.93.39-1.35.67-.05-.07-.13-.13-.15-.15-.28-.45-.57-1.13-.81-1.62-.74-1.52-1.4-3.1-2.13-4.63.1-.06.49.03.59.07Z"/>
  <path class="st55" d="M29.69,17.35c-.55.27-1.09.58-1.69.74l-.25-.06c-1.12-.96-2.39-1.73-3.81-2.28l-.13-.23c-.03-.9-.07-1.8-.07-2.72l5.29,3.5c.28.31.47.7.67,1.06h-.01Z"/>
  <path class="st20" d="M28,18.08c.32.38.64,1,.81,1.47.23.63.41,1.31.37,1.98s-.39,1.81-.74,2.43l.04.22c-.38.61-.87,1.14-1.44,1.57l-.22-.02c-.25.5-1.06.79-1.6.96-.5.16-1.03.24-1.56.24s-1.36-.05-1.7-.46c-.04.03-.08.05-.12.06-.56.16-2.92-1.85-3.15-2.54l.03-.24-.23-.12c-.53-1.12-.72-2.4-.55-3.63.08-.57.22-1.38.7-1.7.52.39,1.14,1.2,1.84.92l3.24-2.71c.12-.21.08-.73.07-1,1.39.71,3.16,1.36,4.19,2.57h.02Z"/>
  <path class="st24" d="M18.66,18.3c-.89,1.54-.77,3.89.07,5.44-.03,1.02-1.26,1.06-1.76.29-.07-.21-.36-1.22-.44-1.28-.82-.35-1.65-.64-2.45-1.01-.07-.03-.11-.13-.12-.13-.08-.15-.14-.14.02-.24,1.46-.9,2.77-1.86,4.17-2.85.15-.21.29-.31.44-.29.03.02.05.05.07.07Z"/>
  <path class="st3" d="M17.56,16.1c.58.16,1.16.35,1.74.51.13.03.29-.08.25.15-.69.67-.6.67-.96,1.47-.05.1-.36.24-.44.29.06-.13.29-.42.28-.54-.02-.31-.9-1.36-1.06-1.73-.09-.22.05-.15.19-.15Z"/>
  <path class="st36" d="M27.34,26.54c-.5.51-1.57,1.24-2.18,1.68-.48.33-.98.64-1.45.97-1.05-.65-2.07-1.38-3.05-2.13-.35-.23.16-.36.42-.42.31-.05.61-.11.9-.17,1.74.62,3.36.29,4.85-.74.08.05.15.11.22.18.59.07.99.15.3.63h0Z"/>
  <path class="st56" d="M21.97,26.46c.04.19-.1.15-.22.18-.3.08-.61.1-.91.2-.12.04-.24.03-.2.2-.17-.13-.69.09-.86.2-.21.13-.23.45-.57.47-.46.03-.77-.44-1.14-.6-.02-.03-.06-.05-.07-.07-.44-.68-.77-2.19-1.03-3.01.07-.18.2.02.26.07.29.25.37.35.8.29.48-.07.44-.36.7-.66.64,1.18,1.98,2.27,3.23,2.72h.01Z"/>
  <path class="st43" d="M29.84,24.04c-.16.4-.61.66-.88.99l.26.04c-.63.49-1.17,1.08-1.88,1.47.09-.09.17-.25.29-.33-.25-.24-.83.05-.81-.48.62-.42,1.25-1.1,1.62-1.76.53.58.85.58,1.4.07Z"/>
</svg>